<svg width="42" height="43" viewBox="0 0 42 43" fill="none" xmlns="http://www.w3.org/2000/svg">
<path fill-rule="evenodd" clip-rule="evenodd" d="M41.9998 22.0477L42 21.9512C42 10.3532 32.598 0.951172 21 0.951172C10.1757 0.951172 1.26409 9.14071 0.123364 19.6617L11.79 25.3654C12.3617 24.5695 13.2953 24.0512 14.35 24.0512C15.2427 24.0512 16.0487 24.4225 16.6219 25.0192L25.9002 17.3646C25.9198 15.6418 27.3225 14.2512 29.05 14.2512C30.6572 14.2512 31.9833 15.4548 32.1759 17.0099L41.9998 22.0477ZM17.4857 26.8993L26.5994 19.3805C27.1769 20.0946 28.0601 20.5512 29.05 20.5512C30.1912 20.5512 31.1907 19.9443 31.7433 19.0357L41.8775 24.2327C40.7404 34.7575 31.8271 42.9512 21 42.9512C9.40202 42.9512 0 33.5492 0 21.9512C0 21.91 0.000118391 21.8689 0.000354851 21.8278L11.2016 27.304C11.2559 28.9961 12.6447 30.3512 14.35 30.3512C16.0897 30.3512 17.5 28.9409 17.5 27.2012C17.5 27.0994 17.4952 26.9987 17.4857 26.8993Z" fill="white"/>
</svg>
