<svg width="42" height="42" viewBox="0 0 42 42" fill="none" xmlns="http://www.w3.org/2000/svg">
<path fill-rule="evenodd" clip-rule="evenodd" d="M41.9998 21.0966L42 21C42 9.40202 32.598 0 21 0C10.1757 0 1.26409 8.18954 0.123364 18.7105L11.79 24.4142C12.3617 23.6184 13.2953 23.1 14.35 23.1C15.2427 23.1 16.0487 23.4714 16.6219 24.068L25.9006 16.4131C25.9203 14.6903 27.3229 13.2998 29.0504 13.2998C30.6577 13.2998 31.9839 14.5037 32.1764 16.0589L41.9998 21.0966ZM17.4857 25.9482L26.5998 18.4291C27.1772 19.1432 28.0605 19.5998 29.0504 19.5998C30.1915 19.5998 31.1909 18.9931 31.7435 18.0846L41.8775 23.2815C40.7404 33.8063 31.8271 42 21 42C9.40202 42 0 32.598 0 21C0 20.9588 0.000118391 20.9177 0.000354851 20.8766L11.2016 26.3528C11.2559 28.0449 12.6447 29.4 14.35 29.4C16.0897 29.4 17.5 27.9897 17.5 26.25C17.5 26.1482 17.4952 26.0475 17.4857 25.9482Z" fill="white"/>
</svg>
